<?xml version="1.0" encoding="iso-8859-1"?>
<!-- Generator: Adobe Illustrator 19.0.0, SVG Export Plug-In . SVG Version: 6.00 Build 0)  -->
<svg version="1.1" id="Capa_1" xmlns="http://www.w3.org/2000/svg" xmlns:xlink="http://www.w3.org/1999/xlink" x="0px" y="0px"
	 viewBox="0 0 502.621 502.621" style="enable-background:new 0 0 502.621 502.621;" xml:space="preserve">
<g>
	<g>
		<g>
			<path style="fill:#010002;" d="M480.532,389.504l-8.866,8.844L295.671,222.33l3.387-3.451c6.665-6.644,6.665-17.515,0-24.116
				l-0.129-0.151l41.416-41.416c4.249-0.108,8.434-1.769,11.583-4.94l8.024-8.024c6.665-6.622,6.665-17.472,0-24.073l-84.45-84.342
				c-6.601-6.644-17.429-6.644-24.03,0l-8.046,8.003c-6.256,6.299-6.579,16.394-0.928,23.038l-37.684,37.706l-0.129-0.108
				c-6.644-6.622-17.494-6.622-24.073,0l-45.665,45.644c-6.687,6.601-6.687,17.472,0,24.073l0.108,0.151l-37.684,37.684
				c-6.687-5.695-16.76-5.393-23.081,0.906l-7.981,8.024c-6.644,6.644-6.644,17.494,0,24.116l84.363,84.385
				c6.644,6.644,17.515,6.644,24.138,0l7.96-8.003c3.192-3.192,4.875-7.377,4.94-11.605l41.437-41.416l0.151,0.129
				c6.644,6.622,17.515,6.622,24.116,0l3.408-3.473L432.882,437.11l-8.844,8.866l22.11,22.132l56.472-56.451L480.532,389.504z"/>
			<rect y="413.124" style="fill:#010002;" width="267.737" height="62.663"/>
		</g>
	</g>
	<g>
	</g>
	<g>
	</g>
	<g>
	</g>
	<g>
	</g>
	<g>
	</g>
	<g>
	</g>
	<g>
	</g>
	<g>
	</g>
	<g>
	</g>
	<g>
	</g>
	<g>
	</g>
	<g>
	</g>
	<g>
	</g>
	<g>
	</g>
	<g>
	</g>
</g>
<g>
</g>
<g>
</g>
<g>
</g>
<g>
</g>
<g>
</g>
<g>
</g>
<g>
</g>
<g>
</g>
<g>
</g>
<g>
</g>
<g>
</g>
<g>
</g>
<g>
</g>
<g>
</g>
<g>
</g>
</svg>
